<?xml version="1.0" encoding="utf-8"?>
<!-- Generator: Adobe Illustrator 23.0.4, SVG Export Plug-In . SVG Version: 6.00 Build 0)  -->
<svg version="1.1" id="Слой_1" xmlns="http://www.w3.org/2000/svg" xmlns:xlink="http://www.w3.org/1999/xlink" x="0px" y="0px"
	 viewBox="0 0 20 20" style="enable-background:new 0 0 20 20;" xml:space="preserve">
<style type="text/css">
	.st0{fill:none;}
	.st1{fill:#999999;}
</style>
<path class="st0" d="M0,0h20v20H0V0z"/>
<path class="st1" d="M10,3.2C5.5,3.2,1.6,6,0,10c1.6,4,5.5,6.8,10,6.8S18.4,14,20,10C18.4,6,14.5,3.2,10,3.2z M10,14.5
	c-2.5,0-4.5-2-4.5-4.5s2-4.5,4.5-4.5s4.5,2,4.5,4.5S12.5,14.5,10,14.5z M10,7.3c-1.5,0-2.7,1.2-2.7,2.7s1.2,2.7,2.7,2.7
	s2.7-1.2,2.7-2.7S11.5,7.3,10,7.3z"/>
</svg>
